<svg width="25" height="25" viewBox="0 0 25 25" fill="none" xmlns="http://www.w3.org/2000/svg">
<path d="M22.2289 10.5415H21.4078V10.5H12.233V14.5H17.9942C17.1537 16.8285 14.8952 18.5 12.233 18.5C8.85517 18.5 6.1165 15.8135 6.1165 12.5C6.1165 9.1865 8.85517 6.5 12.233 6.5C13.7922 6.5 15.2107 7.077 16.2908 8.0195L19.1742 5.191C17.3535 3.5265 14.9182 2.5 12.233 2.5C6.60328 2.5 2.03883 6.9775 2.03883 12.5C2.03883 18.0225 6.60328 22.5 12.233 22.5C17.8627 22.5 22.4272 18.0225 22.4272 12.5C22.4272 11.8295 22.3568 11.175 22.2289 10.5415Z" fill="#FFC107"/>
<path d="M3.21421 7.8455L6.56351 10.255C7.46977 8.054 9.66457 6.5 12.233 6.5C13.7922 6.5 15.2107 7.077 16.2908 8.0195L19.1742 5.191C17.3535 3.5265 14.9181 2.5 12.233 2.5C8.31741 2.5 4.92173 4.6685 3.21421 7.8455Z" fill="#FF3D00"/>
<path d="M12.233 22.5C14.8662 22.5 17.2587 21.5115 19.0677 19.904L15.9126 17.285C14.8547 18.0742 13.562 18.501 12.233 18.5C9.5815 18.5 7.33011 16.8415 6.48196 14.527L3.15764 17.0395C4.84477 20.278 8.27104 22.5 12.233 22.5Z" fill="#4CAF50"/>
<path d="M22.2289 10.5415H21.4078V10.5H12.233V14.5H17.9942C17.5922 15.6082 16.868 16.5766 15.9111 17.2855L15.9126 17.2845L19.0677 19.9035C18.8444 20.1025 22.4272 17.5 22.4272 12.5C22.4272 11.8295 22.3568 11.175 22.2289 10.5415Z" fill="#1976D2"/>
</svg>
