<svg width="25" height="24" viewBox="0 0 25 24" fill="none" xmlns="http://www.w3.org/2000/svg">
<path d="M22.2289 10.0415H21.4078V10H12.233V14H17.9942C17.1537 16.3285 14.8952 18 12.233 18C8.85515 18 6.11649 15.3135 6.11649 12C6.11649 8.6865 8.85515 6 12.233 6C13.7922 6 15.2107 6.577 16.2908 7.5195L19.1742 4.691C17.3535 3.0265 14.9181 2 12.233 2C6.60326 2 2.03882 6.4775 2.03882 12C2.03882 17.5225 6.60326 22 12.233 22C17.8627 22 22.4272 17.5225 22.4272 12C22.4272 11.3295 22.3568 10.675 22.2289 10.0415Z" fill="#FFC107"/>
<path d="M3.21411 7.3455L6.56341 9.755C7.46967 7.554 9.66447 6 12.2329 6C13.7921 6 15.2106 6.577 16.2907 7.5195L19.1741 4.691C17.3534 3.0265 14.918 2 12.2329 2C8.31732 2 4.92164 4.1685 3.21411 7.3455Z" fill="#FF3D00"/>
<path d="M12.2331 22C14.8662 22 17.2588 21.0115 19.0678 19.404L15.9127 16.785C14.8548 17.5742 13.5621 18.0011 12.2331 18C9.58157 18 7.33019 16.3415 6.48203 14.027L3.15771 16.5395C4.84485 19.778 8.27111 22 12.2331 22Z" fill="#4CAF50"/>
<path d="M22.2288 10.0415H21.4077V10H12.2329V14H17.9941C17.5921 15.1082 16.8679 16.0766 15.911 16.7855L15.9125 16.7845L19.0676 19.4035C18.8443 19.6025 22.4271 17 22.4271 12C22.4271 11.3295 22.3567 10.675 22.2288 10.0415Z" fill="#1976D2"/>
</svg>
